<svg width="397" height="297" viewBox="0 0 397 297" fill="none" xmlns="http://www.w3.org/2000/svg">
<path d="M320.996 18.1805C326.008 24.4947 322.079 31.2313 317.717 35.4733C315.795 37.3429 313.047 37.9552 310.382 37.6595C263.422 32.4503 223.392 31.4121 189.519 33.1431C127.876 110.471 96.743 230.625 87.6126 287.837C86.9059 292.266 83.6491 296.04 79.1659 295.925C66.4726 295.6 50.8848 286.374 55.5187 250.627C71.1187 155.827 110.019 70.91 127.519 40.3014C70.0526 51.2758 40.7199 71.2327 30.8551 84.467C29.1834 86.7097 27.0391 88.7587 24.2871 89.2595C-4.70296 94.5359 -6.59048 40.9188 12.5187 29.6271C45.3247 10.2418 158.083 -17.9394 316.209 15.5269C318.036 15.9136 319.835 16.718 320.996 18.1805Z" fill="white"/>
<path d="M245.539 62.4424C249.987 61.1694 259.563 59.8207 269.506 62.7666C276.201 64.7505 280.168 67.734 282.335 70.3106C284.213 72.5433 283.594 75.6276 282.007 78.0752C275.858 87.5565 267.077 101.72 262.506 108.267C249.006 127.6 219.406 178.867 209.006 229.267C198.89 278.289 237.15 246.454 259.187 222.745C260.392 221.45 261.243 219.852 261.711 218.147C275.324 168.502 295.824 149.543 304.506 146.267C310.506 144.267 310.672 146.433 310.006 147.767C320.839 134.1 347.006 114.162 373.506 125.267C426.006 147.267 376.006 254.767 350.006 272.767C338.839 282.1 311.106 299.367 289.506 293.767C267.906 288.167 260.506 265.767 259.506 255.267L258.506 256.267C220.506 298.667 191.672 298.933 182.006 293.767C125.995 262.781 200.96 90.1682 243.623 63.3047C244.235 62.9196 244.844 62.6413 245.539 62.4424ZM354.661 171.477C342.316 167.741 325.047 184.227 325.006 184.267C276.006 224.267 306.506 316.267 359.506 203.267C370.973 182.244 362.655 173.853 356.367 171.985L356.157 171.923C355.658 171.775 355.159 171.627 354.661 171.477Z" fill="white"/>
</svg>
