<svg width="182" height="182" viewBox="0 0 182 182" fill="none" xmlns="http://www.w3.org/2000/svg">
<path d="M110.416 137.6C102.5 140 103.036 144.057 90.583 144.057C78.1299 144.057 78.5 140 70.7503 137.654C59 135 24.0181 116.499 23.24 113.831C23.2081 113.722 23.2872 113.63 23.3715 113.554L27.2389 110.038C27.74 109.582 27.5958 108.76 26.9696 108.502L21.5644 106.277C21.011 106.049 20.8281 105.348 21.1801 104.864C38.5783 80.9337 39.3808 74.4533 38.9257 73.543C22.3948 45.0732 36.0367 20.718 66.1971 50.9982C66.4375 51.2396 66.8116 51.3412 67.1384 51.2449C79.0814 47.7262 80.13 48.1225 90.583 48.1225C101.036 48.1225 102.085 47.6746 114.028 51.1918C114.354 51.2881 114.728 51.1865 114.969 50.9451C145.129 20.6649 158.771 45.0201 142.24 73.49C141.785 74.4002 142.588 80.8806 159.986 104.811C160.338 105.295 160.155 105.996 159.602 106.224L154.196 108.449C153.57 108.707 153.426 109.529 153.927 109.985L157.795 113.501C157.879 113.577 157.958 113.669 157.926 113.778C157.148 116.446 122 135 110.416 137.6Z" fill="white"/>
<path d="M79.5135 133.911C84.1258 137.6 97.9626 137.6 102.575 133.911" stroke="black" stroke-width="3" stroke-linecap="round"/>
<ellipse cx="91.0442" cy="124.686" rx="9.68575" ry="8.30207" fill="black"/>
<ellipse cx="71.0217" cy="97.3465" rx="6.26733" ry="7.71363" fill="black"/>
<ellipse cx="112.152" cy="97.3465" rx="6.26733" ry="7.71363" fill="black"/>
</svg>
