<svg width="182" height="182" viewBox="0 0 182 182" fill="none" xmlns="http://www.w3.org/2000/svg">
<path d="M111.924 139.55C111.343 141.873 106.942 153 91 153C75.058 153 70.657 141.873 70.0761 139.55C69.5779 137.557 56.625 129.586 51.145 126.099C29.7229 113.147 33.7084 79.7705 38.1921 70.3055C39.1884 67.3165 35.2029 68.3128 34.2066 64.3275C33.4095 61.1393 33.7084 58.8478 33.7084 56.8551C16.2718 39.9176 35.7011 14.5115 59.116 39.4195C69.0797 32.246 80.0399 30.4526 91 30.4526C101.96 30.4526 112.92 32.246 122.884 39.4195C146.299 14.5115 165.728 39.9176 148.292 56.8551C148.292 58.8478 148.591 61.1393 147.793 64.3275C146.797 68.3128 142.812 67.3165 143.808 70.3055C148.292 79.7705 152.277 113.147 130.855 126.099C125.375 129.586 112.422 137.557 111.924 139.55Z" fill="white"/>
<ellipse cx="67.2673" cy="81.7136" rx="6.26733" ry="7.71363" fill="black"/>
<ellipse cx="115.802" cy="81.7136" rx="6.26733" ry="7.71363" fill="black"/>
<path d="M85.9444 120.366C83.6296 119.208 79 114 91.7315 114C104.463 114 99.8333 119.208 97.5185 120.366C96.3611 120.944 92.3102 121.523 91.7315 124.995C91.1528 121.523 87.1018 120.944 85.9444 120.366Z" fill="black"/>
<path d="M91.7315 124.995C91.1528 121.523 87.1018 120.944 85.9444 120.366C83.6296 119.208 79 114 91.7315 114C104.463 114 99.8333 119.208 97.5185 120.366C96.3611 120.944 92.3102 121.523 91.7315 124.995ZM91.7315 124.995L91.7315 131.361M91.7315 131.361C91.7315 134.255 85.3657 141.778 79 133.676M91.7315 131.361C91.7315 134.255 98.0972 141.778 104.463 133.676" stroke="black" stroke-width="4" stroke-linecap="round"/>
</svg>
