<svg width="182" height="182" viewBox="0 0 182 182" fill="none" xmlns="http://www.w3.org/2000/svg">
<path d="M91.4846 30.5C100.651 30.5 105.671 31.5052 108.487 32.5107C109.881 33.0088 110.741 33.5094 111.304 33.8975C111.592 34.0962 111.814 34.2724 112.028 34.4414C112.198 34.5757 112.493 34.8155 112.805 34.9717L113.423 35.2803L114.06 35.0107C119.75 32.6033 125.72 32.4502 130.92 33.2734C136.129 34.0981 140.469 35.8885 142.819 37.2441L142.904 37.293L142.994 37.3301C149.427 39.9919 153.195 43.8247 155.024 47.2051C155.942 48.9031 156.357 50.4581 156.408 51.6816C156.456 52.7943 156.203 53.4887 155.926 53.8535C155.131 54.2521 153.911 54.4061 152.222 54.1855C148.803 53.7388 144.309 51.874 140.008 49.4424C135.724 47.0202 131.831 44.1483 129.599 41.8447L129.157 41.3887H123.314C122.485 41.3887 121.814 42.0603 121.814 42.8887C121.814 43.7171 122.485 44.3887 123.314 44.3887H127.9C130.43 46.8637 134.357 49.6942 138.532 52.0547C142.339 54.2075 146.501 56.0526 150.133 56.8555C149.362 60.3546 150.05 63.5931 151.059 66.3096C151.642 67.8785 152.343 69.3066 152.948 70.5176C153.576 71.7772 154.051 72.7147 154.298 73.4561L154.31 73.4922L154.324 73.5283C159.733 87.3349 160.546 99.1076 158.3 108.99C156.054 118.873 150.723 126.986 143.644 133.432C129.438 146.365 108.269 152.5 91.4846 152.5C74.7005 152.5 53.5324 146.365 39.3264 133.432C32.2469 126.986 26.9159 118.873 24.6702 108.99C22.4246 99.1076 23.237 87.3349 28.6458 73.5283L28.6604 73.4922L28.6721 73.4561C28.9192 72.7147 29.3943 71.7772 30.0227 70.5176C30.6269 69.3066 31.3288 67.8784 31.9114 66.3096C32.9202 63.5931 33.6072 60.3546 32.8362 56.8555C36.4681 56.0526 40.631 54.2077 44.4387 52.0547C48.6136 49.6941 52.5407 46.8637 55.0706 44.3887H59.6565C60.4848 44.3885 61.1565 43.717 61.1565 42.8887C61.1564 42.0604 60.4847 41.3888 59.6565 41.3887H53.8128L53.3714 41.8447C51.1398 44.1483 47.2459 47.0202 42.9622 49.4424C38.6617 51.874 34.1675 53.7387 30.7483 54.1855C29.059 54.4062 27.8379 54.2523 27.0432 53.8535C26.7659 53.4887 26.5146 52.7941 26.5618 51.6816C26.6138 50.4581 27.0281 48.9032 27.9466 47.2051C29.7749 43.8247 33.5431 39.9919 39.9759 37.3301L40.0667 37.293L40.1516 37.2441C42.5016 35.8884 46.8415 34.0981 52.0501 33.2734C57.2502 32.4503 63.2201 32.6033 68.9104 35.0107L69.5471 35.2803L70.1653 34.9717C70.4778 34.8154 70.7728 34.5756 70.9427 34.4414C71.1565 34.2724 71.378 34.0961 71.6663 33.8975C72.2294 33.5094 73.0894 33.0087 74.4837 32.5107C77.2991 31.5053 82.3186 30.5 91.4846 30.5Z" fill="white"/>
<ellipse cx="62.5" cy="84" rx="6.5" ry="8" fill="black"/>
<ellipse cx="119.5" cy="84" rx="6.5" ry="8" fill="black"/>
<path d="M85.6574 111.175C83.3426 110.018 78.713 104.81 91.4445 104.81C104.176 104.81 99.5463 110.018 97.2315 111.175C96.0741 111.754 92.0232 112.333 91.4445 115.805C90.8658 112.333 86.8148 111.754 85.6574 111.175Z" fill="black"/>
<path d="M91.4445 115.805C90.8658 112.333 86.8148 111.754 85.6574 111.175C83.3426 110.018 78.713 104.81 91.4445 104.81C104.176 104.81 99.5463 110.018 97.2315 111.175C96.0741 111.754 92.0232 112.333 91.4445 115.805ZM91.4445 115.805L91.4445 122.171M91.4445 122.171C91.4445 125.064 85.0787 132.587 78.713 124.485M91.4445 122.171C91.4445 125.064 97.8102 132.587 104.176 124.485" stroke="black" stroke-width="4" stroke-linecap="round"/>
</svg>
