<svg width="200" height="200" viewBox="0 0 200 200" fill="none" xmlns="http://www.w3.org/2000/svg">
<path d="M100 0C155.228 0 200 44.7715 200 100C200 155.228 155.228 200 100 200C44.7715 200 0 155.228 0 100C0 44.7715 44.7715 0 100 0ZM129.508 50.7598L54.0771 133.671L54.0547 133.695L54.0371 133.722C50.0286 139.467 47.723 144.353 46.876 148.172C46.0341 151.968 46.6095 154.865 48.6143 156.385C50.5955 157.887 53.7405 157.856 57.583 156.387C61.4546 154.906 66.1752 151.917 71.46 147.248L71.4805 147.229L71.498 147.21L146.93 64.2979L147.295 63.8965L146.865 63.5654L130.184 50.7002L129.818 50.4189L129.508 50.7598ZM147.743 45.2783C143.213 42.46 136.454 42.7455 132.386 47.9277L132.074 48.3252L132.474 48.6328L149.155 61.498L149.583 61.8281L149.879 61.377C152.229 57.7917 152.869 54.4857 152.312 51.6934C151.755 48.9036 150.017 46.6932 147.743 45.2783Z" fill="black"/>
</svg>
