<svg width="278" height="149" viewBox="0 0 278 149" fill="none" xmlns="http://www.w3.org/2000/svg">
<path d="M60.5 137C70 146 126.538 151.087 161.534 148.004C196.529 144.922 228.003 134.787 249.512 119.674C271.021 104.56 280.938 85.6123 277.234 66.7082C273.529 47.804 244.494 22.7306 227.494 26.9902C219.494 6.49023 167.97 -0.81157 132.544 0.0705437C97.1169 0.952657 63.6593 9.05919 39.0197 22.7306C14.3801 36.4021 0.422415 54.6043 0.00389878 73.6111C-0.414618 92.6179 32.9944 128.49 35.9942 123.99C38.9941 119.49 138.994 74.4903 138.994 74.4903C139.285 73.8937 51 128 60.5 137Z" fill="white"/>
</svg>
